<svg xmlns="http://www.w3.org/2000/svg" viewBox="0 0 16 16" width="16" height="16" shape-rendering="crispEdges">
  <!-- Tack tray icon at 16 px for a light taskbar: icon-16 with the light tuning (scripts/icon/pixels.py). -->
  <rect x="11" y="0" width="1" height="1" fill="#e3bd5f" fill-opacity="0.65"/>
  <rect x="10" y="1" width="1" height="1" fill="#c99a35" fill-opacity="0.60"/>
  <rect x="11" y="1" width="1" height="1" fill="#f3d27e"/>
  <rect x="12" y="1" width="1" height="1" fill="#fff0c2"/>
  <rect x="13" y="1" width="1" height="1" fill="#e3bd5f" fill-opacity="0.65"/>
  <rect x="10" y="2" width="1" height="1" fill="#dcad48"/>
  <rect x="11" y="2" width="1" height="1" fill="#f3d27e"/>
  <rect x="12" y="2" width="1" height="1" fill="#fff0c2"/>
  <rect x="13" y="2" width="1" height="1" fill="#fffbea"/>
  <rect x="14" y="2" width="1" height="1" fill="#e3bd5f" fill-opacity="0.65"/>
  <rect x="10" y="3" width="1" height="1" fill="#6b470b"/>
  <rect x="11" y="3" width="1" height="1" fill="#a87923"/>
  <rect x="12" y="3" width="1" height="1" fill="#dcad48"/>
  <rect x="13" y="3" width="1" height="1" fill="#f3d27e"/>
  <rect x="14" y="3" width="1" height="1" fill="#dcad48"/>
  <rect x="0" y="4" width="1" height="1" fill="#aab1b8" fill-opacity="0.63"/>
  <rect x="1" y="4" width="8" height="1" fill="#aab1b8"/>
  <rect x="9" y="4" width="1" height="1" fill="#dcad48"/>
  <rect x="10" y="4" width="3" height="1" fill="#6b470b"/>
  <rect x="13" y="4" width="1" height="1" fill="#a87923"/>
  <rect x="14" y="4" width="1" height="1" fill="#dcad48"/>
  <rect x="15" y="4" width="1" height="1" fill="#9a6c1a" fill-opacity="0.60"/>
  <rect x="0" y="5" width="1" height="1" fill="#aab1b8"/>
  <rect x="1" y="5" width="3" height="1" fill="#24503f"/>
  <rect x="4" y="5" width="1" height="1" fill="#183a2d"/>
  <rect x="5" y="5" width="1" height="1" fill="#24503f"/>
  <rect x="6" y="5" width="3" height="1" fill="#183a2d"/>
  <rect x="9" y="5" width="1" height="1" fill="#dcad48"/>
  <rect x="10" y="5" width="1" height="1" fill="#0f281f"/>
  <rect x="11" y="5" width="1" height="1" fill="#878e96"/>
  <rect x="12" y="5" width="1" height="1" fill="#6b470b" fill-opacity="0.60"/>
  <rect x="13" y="5" width="1" height="1" fill="#4f3406"/>
  <rect x="14" y="5" width="1" height="1" fill="#6b470b"/>
  <rect x="15" y="5" width="1" height="1" fill="#6b470b" fill-opacity="0.60"/>
  <rect x="0" y="6" width="1" height="1" fill="#aab1b8"/>
  <rect x="1" y="6" width="1" height="1" fill="#24503f"/>
  <rect x="2" y="6" width="1" height="1" fill="#2f6a52"/>
  <rect x="3" y="6" width="1" height="1" fill="#24503f"/>
  <rect x="4" y="6" width="1" height="1" fill="#2f6a52"/>
  <rect x="5" y="6" width="2" height="1" fill="#24503f"/>
  <rect x="7" y="6" width="1" height="1" fill="#fff0c2"/>
  <rect x="8" y="6" width="1" height="1" fill="#f3d27e"/>
  <rect x="9" y="6" width="1" height="1" fill="#a87923"/>
  <rect x="10" y="6" width="1" height="1" fill="#183a2d"/>
  <rect x="11" y="6" width="1" height="1" fill="#878e96"/>
  <rect x="0" y="7" width="1" height="1" fill="#aab1b8"/>
  <rect x="1" y="7" width="6" height="1" fill="#24503f"/>
  <rect x="7" y="7" width="1" height="1" fill="#dcad48"/>
  <rect x="8" y="7" width="1" height="1" fill="#a87923"/>
  <rect x="9" y="7" width="1" height="1" fill="#183a2d"/>
  <rect x="10" y="7" width="1" height="1" fill="#24503f"/>
  <rect x="11" y="7" width="1" height="1" fill="#878e96"/>
  <rect x="0" y="8" width="1" height="1" fill="#aab1b8"/>
  <rect x="1" y="8" width="1" height="1" fill="#183a2d"/>
  <rect x="2" y="8" width="1" height="1" fill="#2f6a52"/>
  <rect x="3" y="8" width="3" height="1" fill="#24503f"/>
  <rect x="6" y="8" width="1" height="1" fill="#eef1f4"/>
  <rect x="7" y="8" width="1" height="1" fill="#183a2d"/>
  <rect x="8" y="8" width="3" height="1" fill="#24503f"/>
  <rect x="11" y="8" width="1" height="1" fill="#878e96"/>
  <rect x="0" y="9" width="1" height="1" fill="#aab1b8"/>
  <rect x="1" y="9" width="1" height="1" fill="#183a2d"/>
  <rect x="2" y="9" width="8" height="1" fill="#24503f"/>
  <rect x="10" y="9" width="1" height="1" fill="#183a2d"/>
  <rect x="11" y="9" width="1" height="1" fill="#878e96"/>
  <rect x="0" y="10" width="1" height="1" fill="#aab1b8"/>
  <rect x="1" y="10" width="1" height="1" fill="#183a2d"/>
  <rect x="2" y="10" width="9" height="1" fill="#24503f"/>
  <rect x="11" y="10" width="1" height="1" fill="#878e96"/>
  <rect x="0" y="11" width="1" height="1" fill="#aab1b8"/>
  <rect x="1" y="11" width="1" height="1" fill="#183a2d"/>
  <rect x="2" y="11" width="6" height="1" fill="#24503f"/>
  <rect x="8" y="11" width="3" height="1" fill="#183a2d"/>
  <rect x="11" y="11" width="1" height="1" fill="#878e96"/>
  <rect x="0" y="12" width="1" height="1" fill="#aab1b8"/>
  <rect x="1" y="12" width="1" height="1" fill="#183a2d"/>
  <rect x="2" y="12" width="5" height="1" fill="#24503f"/>
  <rect x="7" y="12" width="1" height="1" fill="#183a2d"/>
  <rect x="8" y="12" width="1" height="1" fill="#24503f"/>
  <rect x="9" y="12" width="2" height="1" fill="#183a2d"/>
  <rect x="11" y="12" width="1" height="1" fill="#878e96"/>
  <rect x="0" y="13" width="1" height="1" fill="#aab1b8"/>
  <rect x="1" y="13" width="1" height="1" fill="#183a2d"/>
  <rect x="2" y="13" width="2" height="1" fill="#24503f"/>
  <rect x="4" y="13" width="1" height="1" fill="#183a2d"/>
  <rect x="5" y="13" width="1" height="1" fill="#24503f"/>
  <rect x="6" y="13" width="5" height="1" fill="#183a2d"/>
  <rect x="11" y="13" width="1" height="1" fill="#878e96"/>
  <rect x="0" y="14" width="1" height="1" fill="#aab1b8"/>
  <rect x="1" y="14" width="1" height="1" fill="#183a2d"/>
  <rect x="2" y="14" width="3" height="1" fill="#24503f"/>
  <rect x="5" y="14" width="1" height="1" fill="#183a2d"/>
  <rect x="6" y="14" width="1" height="1" fill="#24503f"/>
  <rect x="7" y="14" width="4" height="1" fill="#183a2d"/>
  <rect x="11" y="14" width="1" height="1" fill="#878e96"/>
  <rect x="0" y="15" width="1" height="1" fill="#878e96" fill-opacity="0.63"/>
  <rect x="1" y="15" width="10" height="1" fill="#878e96"/>
  <rect x="11" y="15" width="1" height="1" fill="#5f666e" fill-opacity="0.63"/>
</svg>
